<svg width="156" height="173" viewBox="0 0 156 173" fill="none" xmlns="http://www.w3.org/2000/svg">
<path fill-rule="evenodd" clip-rule="evenodd" d="M94.0001 101V45.5C94.3334 42.6667 93.2001 37 86.0001 37H77.5001C77.5001 33.5 75.3 26.5 66.5 26.5C57.7 26.5 55.8334 33.5 56 37C55.8334 40.5 59.5001 47.5 66.5 47.5C73.5 47.5 75 44.5 76.5 41.5H86.0001C87.5001 41.1667 90.5 41.5 90.5 45.5V101H94.0001ZM73.5 37.5C73.5 42.7 68.8334 44 66.5 44C64.3334 43.8333 60 42.2 60 37C60 31.8 64.3334 30.5 66.5 30.5C68.8334 30.6667 73.5 32.3 73.5 37.5Z" fill="url(#paint0_linear_82_2)"/>
<path fill-rule="evenodd" clip-rule="evenodd" d="M82.01 100.5V73C82.3433 70.1667 81.21 64.5 74.01 64.5H65.51C65.51 61 63.3099 54 54.5099 54C45.7099 54 43.8433 61 44.0099 64.5C43.8432 68 47.51 75 54.5099 75C61.5099 75 63.0099 72 64.5099 69H74.01C75.51 68.6667 78.5099 69 78.5099 73V100.5H82.01ZM61.5099 65C61.5099 70.2 56.8433 71.5 54.5099 71.5C52.3433 71.3333 48.0099 69.7 48.0099 64.5C48.0099 59.3 52.3433 58 54.5099 58C56.8433 58.1667 61.5099 59.8 61.5099 65Z" fill="url(#paint1_linear_82_2)"/>
<path fill-rule="evenodd" clip-rule="evenodd" d="M62.5 82.5L62.5 107.5C62.1667 110.333 63.3 116 70.5 116H75.5514C75.5514 119.5 77.7515 126.5 86.5515 126.5C95.3515 126.5 97.2181 119.5 97.0515 116C97.2182 112.5 93.5514 105.5 86.5515 105.5C79.5515 105.5 78.0515 108.5 76.5515 111.5H70.5C69 111.833 66.0001 111.5 66.0001 107.5V82.5H62.5ZM79.5515 115.5C79.5515 110.3 84.2182 109 86.5515 109C88.7182 109.167 93.0515 110.8 93.0515 116C93.0515 121.2 88.7182 122.5 86.5515 122.5C84.2182 122.333 79.5515 120.7 79.5515 115.5Z" fill="url(#paint2_linear_82_2)"/>
<path fill-rule="evenodd" clip-rule="evenodd" d="M40 106L40 124.603C39.6667 127.436 40.8 133.103 48 133.103L56.4999 133.103C56.4999 136.603 58.7 143.603 67.5 143.603C76.3 143.603 78.1666 136.603 78 133.103C78.1666 129.603 74.4999 122.603 67.5 122.603C60.5 122.603 59 125.603 57.5 128.603L48 128.603C46.5 128.936 43.5001 128.603 43.5001 124.603L43.5001 106H40ZM60.5 132.603C60.5 127.403 65.1666 126.103 67.5 126.103C69.6666 126.27 74 127.903 74 133.103C74 138.303 69.6666 139.603 67.5 139.603C65.1666 139.436 60.5 137.803 60.5 132.603Z" fill="url(#paint3_linear_82_2)"/>
<path d="M152.414 39.2371L130.897 35.6701C109.657 19.2038 84.9302 15.7714 60 24.8529C38.8042 33.9809 24.7189 49.3609 21 69.5C19.2208 75.5971 17.6345 90.2474 21.5172 105.227C24.7956 117.875 33.5133 129.014 43.6035 137.33C68.2303 157.627 113.021 155.706 131 135L152.414 133.763L156 139.113L139.862 155.165L125.517 148.031C117.352 153.309 112.619 155.165 104 156.948L98.6207 173H73.5172L69.931 156.948C60.0006 155.895 53.5498 152.594 46.6207 148.031L34.069 155.165L16.1379 139.113L23.3103 124.845C18.7954 116.816 16.9041 111.204 14.5 102.5L0 98.0928V74.9072L14.3448 69.5567C16.8466 59.5932 18.8217 54.5142 23.3103 46.3711L16.1379 33.8866L33.5 17L47.5 23.5C55.5153 18.8834 60.0595 16.7965 68.9828 14.5L75.3103 0H96.8276L102.207 14.268C110.922 16.4869 117.269 19.0565 125 23.1856L139.862 17.8351L156 33.8866L152.414 39.2371Z" fill="url(#paint4_linear_82_2)"/>
<defs>
<linearGradient id="paint0_linear_82_2" x1="75.0208" y1="26.5" x2="75.0208" y2="101" gradientUnits="userSpaceOnUse">
<stop stop-color="#ECE8F4"/>
<stop offset="1" stop-color="#D8F8FF"/>
</linearGradient>
<linearGradient id="paint1_linear_82_2" x1="63.0307" y1="54" x2="63.0307" y2="100.5" gradientUnits="userSpaceOnUse">
<stop stop-color="#ECE8F4"/>
<stop offset="1" stop-color="#D8F8FF"/>
</linearGradient>
<linearGradient id="paint2_linear_82_2" x1="79.755" y1="126.5" x2="79.755" y2="82.5" gradientUnits="userSpaceOnUse">
<stop stop-color="#ECE8F4"/>
<stop offset="1" stop-color="#D8F8FF"/>
</linearGradient>
<linearGradient id="paint3_linear_82_2" x1="58.9792" y1="143.603" x2="58.9792" y2="106" gradientUnits="userSpaceOnUse">
<stop stop-color="#ECE8F4"/>
<stop offset="1" stop-color="#D8F8FF"/>
</linearGradient>
<linearGradient id="paint4_linear_82_2" x1="78" y1="0" x2="78" y2="173" gradientUnits="userSpaceOnUse">
<stop stop-color="#ECE8F4"/>
<stop offset="1" stop-color="#D8F8FF"/>
</linearGradient>
</defs>
</svg>
